# xmcd
#
# Track frame offsets: 
#        150
#        82968
#        159263
#        227303
#        284540
#        344966
#
# Disc length: 4762 seconds
#
# Revision: 0
# Processed by: cddbd v1.5.2PL0 Copyright (c) Steve Scherf et al.
# Submitted via: ExactAudioCopy v0.95b3
#
DISCID=49129806
DTITLE=Derek And The Dominos  - The Complete Jams - Disc 2 FLAC
DYEAR=1900
DGENRE=
TTITLE0=Jam V
TTITLE1=Jam Vi
TTITLE2=Jam Vii
TTITLE3=Jam Viii
TTITLE4=Jam Ix
TTITLE5=Jam X
EXTD=
EXTT0=
EXTT1=
EXTT2=
EXTT3=
EXTT4=
EXTT5=
PLAYORDER=
